<?xml version="1.0" encoding="iso-8859-1"?>
<!-- Generator: Adobe Illustrator 19.0.0, SVG Export Plug-In . SVG Version: 6.00 Build 0)  -->
<svg
    version="1.1"
    id="Layer_1"
    xmlns="http://www.w3.org/2000/svg"
    xmlns:xlink="http://www.w3.org/1999/xlink"
    x="0px"
    y="0px"
    viewBox="0 0 218.356 218.356"
    xml:space="preserve">
<g>
	<g>
		<g>
			<path fill="#ffffffff"
			    d="M142.678,0H50.948C34.805,0,21.67,13.135,21.67,29.278v159.8c0,16.143,13.135,29.278,29.278,29.278h116.464
				c16.143,0,29.275-13.135,29.275-29.278V60.369L142.678,0z M146.886,27.525l25.179,28.141h-25.179V27.525z M181.473,189.077
				c-0.003,7.754-6.308,14.061-14.061,14.061H50.948c-7.753,0-14.061-6.307-14.061-14.061v-159.8
				c0-7.753,6.307-14.061,14.061-14.061h80.722v55.667h49.803V189.077z"/>
			<rect fill="#ffffffff" x="92.758" y="161.803" width="70.879" height="15.217"/>
			<rect fill="#ffffffff" x="92.758" y="125.452" width="70.879" height="15.217"/>
			<rect fill="#ffffffff" x="92.758" y="88.957" width="70.879" height="15.217"/>
			<polygon fill="#ffffffff" points="61.909,96.664 56.899,91.845 49.865,99.152 62.117,110.943 79.829,92.88 72.589,85.776"/>
			<polygon fill="#ffffffff" points="61.909,133.162 56.899,128.338 49.865,135.65 62.117,147.438 79.829,129.376 72.589,122.272"/>
			<polygon fill="#ffffffff" points="61.909,169.511 56.899,164.687 49.865,171.999 62.117,183.787 79.829,165.724 72.589,158.62"/>
		</g>
	</g>
</g>
</svg>
